<svg width="13" height="12" viewBox="-4 -4 21 20" fill="none" xmlns="http://www.w3.org/2000/svg">
<path d="M7.85718 0.100403C8.03114 0.100403 8.18869 0.203931 8.25659 0.364075L12.6335 10.7098C12.7544 10.9955 12.5444 11.3123 12.2341 11.3123H9.57007C9.39601 11.3123 9.23849 11.208 9.17065 11.0477L5.32886 1.96564C5.24852 1.77575 4.97853 1.77575 4.89819 1.96564L1.52417 9.94122C1.45954 10.0949 1.57227 10.2653 1.73901 10.2654H4.10913C4.28289 10.2654 4.43954 10.3692 4.50757 10.5291L4.58472 10.7088C4.70626 10.9945 4.49667 11.3121 4.18628 11.3123H0.533936C0.223735 11.3123 0.0136754 10.9955 0.134521 10.7098L4.51147 0.364075C4.57936 0.203898 4.7369 0.100403 4.91089 0.100403H7.85718Z" fill="black" stroke="black" style="fill:black;fill-opacity:1;stroke:black;stroke-opacity:1;" stroke-width="0.2"/>
</svg>
