<svg width="365" height="58" viewBox="0 0 365 58" fill="none" xmlns="http://www.w3.org/2000/svg">
<path d="M93.0333 49.8759C81.0474 49.8759 74.094 41.3386 74.094 28.5328C74.094 15.67 81.5001 7.48848 93.3719 7.48848C102.474 7.48848 108.975 12.6784 110.615 21.8168H103.708C102.464 16.2889 98.4507 13.3543 93.1367 13.3543C86.6359 13.3543 81.4894 18.6616 81.4894 28.5328C81.4894 38.4644 86.5218 43.9923 93.0796 43.9923C98.6182 43.9923 102.578 41.1145 103.822 35.5297H110.729C109.032 44.6859 102.474 49.8759 93.0333 49.8759Z" fill="#007BFF"/>
<path d="M130.748 18.1102C138.097 18.1102 141.084 22.8484 141.084 30.0695V49.1431H134.358V31.7129C134.358 27.5901 133.745 23.5847 128.599 23.5847C123.452 23.5847 121.528 27.5332 121.528 33.0041V49.1431H114.806V8.23549H121.528V23.0191C123.285 19.8568 126.517 18.1102 130.748 18.1102Z" fill="#007BFF"/>
<path d="M174.047 18.7861V49.1431H167.322V45.1377C165.512 48.1257 162.332 49.8759 158.277 49.8759C150.642 49.8759 145.047 43.7255 145.047 33.9646C145.047 24.2037 150.642 18.1102 158.277 18.1102C162.347 18.1102 165.512 19.8568 167.322 22.8484V18.7861H174.047ZM152.057 33.9646C152.057 40.396 154.827 44.4014 159.745 44.4014C164.154 44.4014 167.586 40.9616 167.586 33.9646C167.586 26.9676 164.154 23.5847 159.745 23.5847C154.827 23.5847 152.057 27.5332 152.057 33.9646Z" fill="#007BFF"/>
<path d="M207.852 18.1707C215.201 18.1707 218.188 22.9089 218.188 30.13V49.1965H211.47V31.7663C211.47 27.647 210.85 23.6417 205.703 23.6417C200.557 23.6417 198.636 27.5901 198.636 33.0611V49.1965H191.91V18.8466H198.636V23.0796C200.389 19.9208 203.611 18.1707 207.852 18.1707Z" fill="#007BFF"/>
<path d="M234.697 23.3037C231.756 23.3037 229.044 24.6021 229.044 26.6333C229.044 28.6644 230.513 29.7351 233.114 30.2438L237.413 31.0904C243.571 32.2749 248.265 34.1923 248.265 40.1185C248.265 46.4396 242.274 49.9363 235.374 49.9363C227.914 49.9363 222.939 45.7033 222.205 39.9478H228.763C229.383 43.0532 231.646 44.8602 235.602 44.8602C239.106 44.8602 241.707 43.3911 241.707 40.9082C241.707 38.4253 239.448 37.2977 236.45 36.7321L231.871 35.8321C226.728 34.8148 222.711 32.5026 222.711 26.9712C222.711 21.6105 228.478 18.1707 235.092 18.1707C241.03 18.1707 246.455 21.0485 247.698 27.1419H241.369C240.634 24.378 238.09 23.3037 234.697 23.3037Z" fill="#007BFF"/>
<path d="M261.409 10.8358V18.8466H267.515V23.6986H261.409V40.2323C261.409 43.3342 262.144 44.067 265.027 44.067H267.458V49.1964H262.468C255.967 49.1964 254.666 47.4463 254.666 41.239V23.6986H250.158V18.8466H254.68V10.8358H261.409Z" fill="#007BFF"/>
<path d="M299.901 18.8466V49.1965H293.172V45.1982C291.365 48.1862 288.182 49.9363 284.126 49.9363C276.496 49.9363 270.897 43.786 270.897 34.0251C270.897 24.2642 276.496 18.1707 284.126 18.1707C288.197 18.1707 291.365 19.9208 293.172 22.9089V18.8466H299.901ZM277.911 34.0251C277.911 40.4565 280.68 44.4618 285.598 44.4618C290.007 44.4618 293.439 41.0221 293.439 34.0251C293.439 27.0281 289.993 23.6452 285.598 23.6452C280.68 23.6452 277.911 27.5937 277.911 34.0251Z" fill="#007BFF"/>
<path d="M326.3 29.23C325.747 26.0108 322.896 23.7555 319.232 23.7555C315.052 23.7555 311.263 26.8609 311.263 34.0251C311.263 41.2462 315.105 44.3409 319.065 44.3409C322.34 44.3409 325.676 42.8718 326.524 38.8095H333.082C331.728 45.9239 325.451 49.9257 318.951 49.9257C310.13 49.9257 304.31 43.0995 304.31 34.0713C304.31 25.0432 310.187 18.16 319.232 18.16C325.847 18.16 331.728 22.4287 332.858 29.2193L326.3 29.23Z" fill="#007BFF"/>
<path d="M343.781 31.0335L355.03 18.8466H363.113L351.469 31.3181L364.414 49.1965H356.573L347.021 36.0349L343.813 39.4782V49.1965H337.052V8.28886H343.781V31.0335Z" fill="#007BFF"/>
<path d="M186.465 49.1431H179.736V18.7861H186.465V49.1431Z" fill="#007BFF"/>
<path d="M183.1 16.6376C185.628 16.6376 187.676 14.5927 187.676 12.0701C187.676 9.54762 185.628 7.50272 183.1 7.50272C180.573 7.50272 178.524 9.54762 178.524 12.0701C178.524 14.5927 180.573 16.6376 183.1 16.6376Z" fill="#007BFF"/>
<path d="M41.3012 40.9793H13.4233C12.452 40.9813 11.4898 40.7918 10.592 40.4219C9.69418 40.052 8.87834 39.5089 8.19125 38.8237L2.48878 33.1322C1.11547 31.7502 0.346574 29.8815 0.350357 27.9351V13.155C0.348406 12.1856 0.538183 11.2253 0.908808 10.3292C1.27943 9.43312 1.82362 8.61885 2.51017 7.93308L8.21263 2.24159C9.59858 0.870715 11.472 0.103345 13.4233 0.107284H41.3012V8.2888H15.9145C13.9613 8.29069 12.0886 9.06595 10.7074 10.4444C9.3263 11.8229 8.54954 13.692 8.54765 15.6415V25.4451C8.54765 27.3958 9.32358 29.2667 10.7049 30.6468C12.0863 32.0268 13.9601 32.803 15.9145 32.8049H41.3012V40.9793Z" fill="#007BFF"/>
<path d="M16.7449 16.4704H44.6264C46.5741 16.4685 48.4434 17.2358 49.8263 18.6047L55.5288 24.2962C56.9117 25.6764 57.6886 27.5484 57.6886 29.5003V44.2804C57.6886 46.2324 56.9117 48.1043 55.5288 49.4846L49.8263 55.1761C48.4434 56.5563 46.5678 57.3317 44.6121 57.3317H16.7449V49.1502H42.1315C44.0872 49.1502 45.9629 48.3748 47.3458 46.9946C48.7286 45.6143 49.5055 43.7423 49.5055 41.7904V31.9904C49.5055 30.0384 48.7286 28.1664 47.3458 26.7862C45.9629 25.406 44.0872 24.6305 42.1315 24.6305H16.7449V16.4704Z" fill="#007BFF"/>
</svg>
