<svg width="1038" height="240" viewBox="0 0 1038 240" fill="none" xmlns="http://www.w3.org/2000/svg">
<path d="M979.158 193.314C972.154 193.314 965.846 192.067 960.234 189.573C954.669 187.03 950.256 183.289 946.994 178.348C943.78 173.407 942.173 167.315 942.173 160.071C942.173 153.835 943.325 148.679 945.627 144.601C947.93 140.524 951.072 137.262 955.053 134.815C959.035 132.369 963.52 130.522 968.509 129.275C973.545 127.98 978.75 127.044 984.123 126.469C990.599 125.797 995.851 125.197 999.881 124.67C1003.91 124.094 1006.84 123.231 1008.66 122.079C1010.53 120.88 1011.47 119.033 1011.47 116.539V116.107C1011.47 110.687 1009.86 106.489 1006.64 103.515C1003.43 100.541 998.801 99.0539 992.757 99.0539C986.377 99.0539 981.317 100.445 977.575 103.227C973.881 106.01 971.387 109.295 970.092 113.085L945.771 109.631C947.69 102.915 950.856 97.303 955.269 92.7939C959.682 88.2368 965.079 84.8309 971.459 82.5764C977.839 80.2738 984.89 79.1226 992.613 79.1226C997.938 79.1226 1003.24 79.7462 1008.52 80.9934C1013.79 82.2406 1018.61 84.3033 1022.98 87.1814C1027.34 90.0117 1030.85 93.8732 1033.48 98.7661C1036.17 103.659 1037.51 109.775 1037.51 117.114V191.084H1012.47V175.901H1011.61C1010.03 178.971 1007.8 181.85 1004.92 184.536C1002.09 187.174 998.514 189.309 994.196 190.94C989.927 192.523 984.914 193.314 979.158 193.314ZM985.922 174.174C991.15 174.174 995.683 173.143 999.521 171.08C1003.36 168.97 1006.31 166.187 1008.37 162.734C1010.48 159.28 1011.54 155.514 1011.54 151.437V138.413C1010.72 139.085 1009.33 139.708 1007.36 140.284C1005.45 140.859 1003.29 141.363 1000.89 141.795C998.49 142.227 996.115 142.61 993.765 142.946C991.414 143.282 989.375 143.57 987.649 143.81C983.763 144.337 980.285 145.201 977.215 146.4C974.145 147.599 971.723 149.278 969.948 151.437C968.173 153.547 967.285 156.282 967.285 159.64C967.285 164.437 969.036 168.058 972.538 170.505C976.04 172.951 980.501 174.174 985.922 174.174Z" fill="#251D52"/>
<path d="M874.714 191.082V80.56H899.97V98.9804H901.121C903.136 92.6004 906.59 87.6835 911.483 84.2297C916.424 80.7279 922.06 78.9771 928.392 78.9771C929.831 78.9771 931.438 79.049 933.213 79.1929C935.036 79.2889 936.547 79.4567 937.746 79.6966V103.657C936.643 103.274 934.892 102.938 932.494 102.65C930.143 102.314 927.864 102.146 925.658 102.146C920.909 102.146 916.64 103.178 912.85 105.24C909.108 107.255 906.158 110.061 904 113.659C901.841 117.257 900.762 121.406 900.762 126.107V191.082H874.714Z" fill="#251D52"/>
<path d="M805.367 193.242C794.574 193.242 785.219 190.868 777.304 186.119C769.389 181.37 763.249 174.726 758.884 166.187C754.567 157.649 752.408 147.671 752.408 136.254C752.408 124.838 754.567 114.836 758.884 106.249C763.249 97.6628 769.389 90.995 777.304 86.246C785.219 81.4971 794.574 79.1226 805.367 79.1226C816.16 79.1226 825.514 81.4971 833.429 86.246C841.344 90.995 847.46 97.6628 851.777 106.249C856.142 114.836 858.325 124.838 858.325 136.254C858.325 147.671 856.142 157.649 851.777 166.187C847.46 174.726 841.344 181.37 833.429 186.119C825.514 190.868 816.16 193.242 805.367 193.242ZM805.511 172.376C811.363 172.376 816.256 170.769 820.189 167.555C824.123 164.293 827.049 159.927 828.968 154.459C830.934 148.99 831.918 142.898 831.918 136.182C831.918 129.419 830.934 123.303 828.968 117.834C827.049 112.318 824.123 107.928 820.189 104.666C816.256 101.404 811.363 99.7735 805.511 99.7735C799.514 99.7735 794.526 101.404 790.544 104.666C786.611 107.928 783.66 112.318 781.694 117.834C779.775 123.303 778.815 129.419 778.815 136.182C778.815 142.898 779.775 148.99 781.694 154.459C783.66 159.927 786.611 164.293 790.544 167.555C794.526 170.769 799.514 172.376 805.511 172.376Z" fill="#251D52"/>
<path d="M691.695 193.242C680.614 193.242 671.044 190.94 662.985 186.335C654.974 181.682 648.81 175.11 644.492 166.619C640.175 158.081 638.017 148.031 638.017 136.47C638.017 125.101 640.175 115.124 644.492 106.537C648.858 97.9027 654.95 91.1869 662.769 86.39C670.588 81.545 679.774 79.1226 690.327 79.1226C697.139 79.1226 703.567 80.2259 709.611 82.4325C715.703 84.5911 721.076 87.949 725.729 92.5061C730.43 97.0632 734.124 102.868 736.81 109.919C739.496 116.923 740.839 125.269 740.839 134.959V142.946H650.249V125.389H715.871C715.823 120.4 714.744 115.963 712.633 112.078C710.523 108.144 707.573 105.05 703.783 102.796C700.041 100.541 695.676 99.4137 690.687 99.4137C685.363 99.4137 680.686 100.709 676.656 103.299C672.627 105.842 669.485 109.2 667.23 113.373C665.024 117.498 663.896 122.031 663.848 126.972V142.299C663.848 148.726 665.023 154.243 667.374 158.848C669.725 163.405 673.01 166.907 677.232 169.353C681.453 171.752 686.394 172.951 692.054 172.951C695.844 172.951 699.274 172.423 702.344 171.368C705.414 170.265 708.076 168.658 710.331 166.547C712.585 164.437 714.288 161.822 715.44 158.704L739.76 161.438C738.225 167.866 735.299 173.479 730.982 178.276C726.712 183.025 721.244 186.718 714.576 189.357C707.908 191.947 700.281 193.242 691.695 193.242Z" fill="#251D52"/>
<path d="M627.888 80.5618V100.709H564.352V80.5618H627.888ZM580.038 54.0825H606.086V157.841C606.086 161.343 606.613 164.029 607.669 165.9C608.772 167.723 610.211 168.97 611.986 169.641C613.761 170.313 615.728 170.649 617.886 170.649C619.517 170.649 621.004 170.529 622.347 170.289C623.738 170.049 624.794 169.833 625.513 169.641L629.903 190.004C628.511 190.484 626.521 191.012 623.93 191.587C621.388 192.163 618.27 192.499 614.576 192.595C608.052 192.787 602.176 191.803 596.947 189.645C591.719 187.438 587.569 184.032 584.499 179.427C581.477 174.822 579.99 169.066 580.038 162.158V54.0825Z" fill="#251D52"/>
<path d="M507.237 193.242C496.156 193.242 486.586 190.94 478.527 186.335C470.516 181.682 464.352 175.11 460.035 166.619C455.717 158.081 453.559 148.031 453.559 136.47C453.559 125.101 455.717 115.124 460.035 106.537C464.4 97.9027 470.492 91.1869 478.311 86.39C486.13 81.545 495.316 79.1226 505.87 79.1226C512.681 79.1226 519.109 80.2259 525.153 82.4325C531.246 84.5911 536.618 87.949 541.271 92.5061C545.972 97.0632 549.666 102.868 552.352 109.919C555.038 116.923 556.382 125.269 556.382 134.959V142.946H465.791V125.389H531.413C531.365 120.4 530.286 115.963 528.175 112.078C526.065 108.144 523.115 105.05 519.325 102.796C515.583 100.541 511.218 99.4137 506.229 99.4137C500.905 99.4137 496.228 100.709 492.198 103.299C488.169 105.842 485.027 109.2 482.772 113.373C480.566 117.498 479.438 122.031 479.39 126.972V142.299C479.39 148.726 480.566 154.243 482.916 158.848C485.267 163.405 488.553 166.907 492.774 169.353C496.995 171.752 501.936 172.951 507.597 172.951C511.386 172.951 514.816 172.423 517.886 171.368C520.956 170.265 523.618 168.658 525.873 166.547C528.128 164.437 529.83 161.822 530.982 158.704L555.302 161.438C553.767 167.866 550.841 173.479 546.524 178.276C542.255 183.025 536.786 186.718 530.118 189.357C523.45 191.947 515.823 193.242 507.237 193.242Z" fill="#251D52"/>
<path d="M281.55 43.7202H314.217L357.966 150.501H359.693L403.441 43.7202H436.108V191.083H410.492V89.843H409.125L368.399 190.651H349.259L308.533 89.6272H307.166V191.083H281.55V43.7202Z" fill="#251D52"/>
<path d="M183.537 54.9648C187.594 50.9079 193.879 51.1468 196.477 55.4424C199.288 60.0563 201.409 65.0418 202.921 70.2656C203.769 73.2355 202.788 76.7087 200.322 79.1748L120.851 158.646C116.052 163.446 110.085 166.76 103.748 168.112L97.1454 169.519C90.8345 170.897 84.8149 174.211 80.0419 178.984L19.0263 240C16.4276 229.977 15.288 223.215 23.4286 215.074L183.537 54.9648ZM200.749 89.2041C203.401 86.5524 207.484 88.0906 207.219 91.5908C205.575 113.016 195.366 135.582 177.176 153.772C163.307 168.967 124.169 192.195 96.1933 207.761C90.4657 210.943 85.7986 204.154 90.4921 199.461L200.749 89.2041ZM164.181 22.832C166.7 20.313 170.411 19.7824 172.957 21.5322C178.26 25.1385 183.219 30.3628 185.765 36.6738C186.719 39.1133 185.897 42.1093 183.803 44.2041L98.206 129.801C93.4065 134.6 87.4399 137.915 81.1025 139.268L74.4999 140.673C68.189 142.052 62.1694 145.367 57.3964 150.14L4.6015 202.935C2.00284 192.911 3.24988 183.763 11.3906 175.622L164.181 22.832ZM127.903 7.61326C132.676 2.84029 139.518 0.984135 145.14 3.10545C148.666 4.45777 152.06 6.10241 155.268 8.03806C159.511 10.5837 159.723 16.7881 155.746 20.7656L77.4687 99.0439C72.9873 103.525 66.8883 105.912 61.0546 105.487C54.9292 105.036 48.4857 107.556 43.7392 112.303L0.861261 155.18C-1.73724 145.156 1.63083 133.887 9.77142 125.746L23.6659 111.852L127.903 7.61326ZM115.364 0.000953693C119.129 -0.0520198 120.588 4.42913 117.725 7.29295L77.0742 47.9433L43.1318 81.8847L34.5146 90.5029C34.4881 90.5294 34.4872 90.5293 34.4872 90.5293L21.3886 103.629L21.3085 103.708C18.5508 106.466 14.4681 103.974 16.0058 100.474L28.8398 71.3047C29.5557 69.5281 30.3515 67.7251 31.2265 65.8955L31.3056 65.7099C38.7038 50.0385 50.6096 33.4118 61.7997 22.2217C79.7517 4.26974 95.8743 0.186572 115.364 0.000953693Z" fill="url(#paint0_linear_7728_100)"/>
<defs>
<linearGradient id="paint0_linear_7728_100" x1="245.871" y1="0.286569" x2="39.0701" y2="239.4" gradientUnits="userSpaceOnUse">
<stop stop-color="#F5BD00"/>
<stop offset="0.364891" stop-color="#F54B00"/>
<stop offset="1" stop-color="#6E45FF"/>
</linearGradient>
</defs>
</svg>
