<?xml version="1.0" standalone="no"?>
<!DOCTYPE svg PUBLIC "-//W3C//DTD SVG 1.1//EN" "http://www.w3.org/Graphics/SVG/1.1/DTD/svg11.dtd">
<svg xmlns="http://www.w3.org/2000/svg" width="1052" height="380" viewBox="0 0 1052 380" fill="none">
<path fill-rule="evenodd" clip-rule="evenodd" d="M365.34 190.151C365.34 287.075 286.774 365.642 189.849 365.642C92.9247 365.642 14.3583 287.075 14.3583 190.151C14.3583 93.226 92.9247 14.6596 189.849 14.6596C286.774 14.6596 365.34 93.226 365.34 190.151ZM379.699 190.151C379.699 295.006 294.705 380 189.849 380C84.9941 380 0 295.006 0 190.151C0 85.2954 84.9941 0.30127 189.849 0.30127C294.705 0.30127 379.699 85.2954 379.699 190.151ZM183.653 98.567H135.422C86.9131 98.567 81.2715 119.931 81.2715 140.232C81.2715 173.087 104.994 185.087 131.399 189.11H81.2715V283.122H129.503C178.011 283.122 183.653 261.757 183.653 241.457C183.653 216.625 166.404 199.26 139.722 192.578H183.653V98.567ZM322.427 126.891V146.382C322.427 172.81 300.878 194.174 274.196 194.174H271.491V282.567H262.867C210.335 282.567 199.815 246.243 199.815 213.943L199.005 98.567H271.491V126.891H322.427Z" fill="#EE2536"/>
<path fill-rule="evenodd" clip-rule="evenodd" d="M490.243 154.854C495.108 149.992 497.541 143.902 497.541 136.562H497.633C497.633 129.384 495.363 123.619 490.822 119.243C486.282 114.867 480.513 112.204 473.494 111.208L473.318 111.188L473.318 111.188L473.318 111.188L473.318 111.188C471.839 111.018 468.886 110.679 464.459 110.212C459.826 109.726 456.49 109.309 454.428 108.985C448.474 108.013 445.509 104.841 445.509 99.4689C445.509 96.6672 446.505 94.2129 448.474 92.0595C451.602 88.8411 456.351 87.2434 462.698 87.2434C465.177 87.2434 467.656 87.6834 470.181 88.5401C472.706 89.42 474.652 90.5545 476.065 91.9437C478.475 94.5139 479.749 97.385 479.911 100.603H496.243C496.151 93.6572 493.185 87.4518 487.324 81.918C481.208 76.222 473.054 73.374 462.814 73.374C457.695 73.374 452.876 74.2076 448.335 75.8515C443.795 77.5186 440.042 79.7646 437.076 82.6589C431.957 87.776 429.408 93.5414 429.408 99.9783C429.408 106.901 431.493 112.435 435.663 116.603C439.833 120.771 445.185 123.387 451.694 124.452C453.501 124.777 456.675 125.147 461.216 125.564C465.756 125.957 469.046 126.374 471.108 126.791C478.035 128.041 481.51 131.491 481.51 137.187C481.51 140.313 480.351 143.115 478.035 145.592C474.977 148.718 469.903 150.293 462.814 150.293C456.119 150.293 451.208 148.718 448.08 145.592C445.022 142.536 443.493 138.947 443.493 134.825H427.161C427.161 142.906 430.196 149.691 436.312 155.224C442.914 161.245 451.648 164.255 462.536 164.255C474.722 164.255 483.965 161.129 490.243 154.854ZM551.589 162.659H564.469L564.492 162.682V98.3825H549.017V132.396C549.017 139.157 547.442 143.973 544.314 146.868C542.16 149.021 539.519 150.086 536.392 150.086C528.955 150.086 525.249 145.988 525.249 137.837V98.3825H509.773V141.287C509.773 148.21 511.766 153.767 515.773 157.982C519.758 162.173 525.179 164.28 532.036 164.28C536.16 164.28 539.89 163.4 543.179 161.617C546.469 159.834 548.901 157.38 550.477 154.254L551.589 162.659ZM640.316 130.381C640.316 143.255 636.471 152.818 628.803 159.07C624.517 162.543 619.281 164.256 613.096 164.256C605.335 164.256 599.729 162.149 596.277 157.958V187.271H580.802V98.359H594.169L595.165 105.398C598.872 99.702 604.895 96.854 613.235 96.854C619.165 96.854 624.378 98.66 628.826 102.295C636.494 108.64 640.339 117.994 640.339 130.358L640.316 130.381ZM624.609 130.636C624.609 123.713 623.243 118.48 620.532 114.937C617.891 111.557 614.416 109.867 610.13 109.867C600.401 109.867 595.536 116.79 595.536 130.636C595.536 144.482 600.401 151.29 610.13 151.29C614.416 151.29 617.891 149.599 620.532 146.219C623.243 142.676 624.609 137.49 624.609 130.636ZM708.518 135.314C708.518 134.411 708.541 132.952 708.634 130.984V131.007C708.889 122.092 707.036 114.637 703.074 108.617C697.792 100.698 689.962 96.7385 679.56 96.7385C671.128 96.7385 664.294 99.4475 659.012 104.889C652.826 111.233 649.722 119.8 649.722 130.613C649.722 141.426 653.012 149.993 659.614 156.338C665.128 161.617 671.892 164.256 679.908 164.256C689.244 164.256 696.449 161.246 701.568 155.226C704.789 151.336 706.595 147.4 707.012 143.348H692.163C691.607 145.501 690.564 147.307 689.082 148.789C687.02 150.873 683.892 151.892 679.676 151.892C676.132 151.892 672.958 150.572 670.155 147.933C666.865 144.807 665.29 140.593 665.452 135.314H708.518ZM689.197 112.808C691.746 115.609 693.066 119.36 693.159 124.061V124.084H665.313C665.382 120.124 666.494 116.79 668.649 114.058C671.128 110.747 674.719 109.103 679.421 109.103C683.638 109.103 686.881 110.33 689.197 112.808ZM758.115 112.691L758.092 112.686V97.8487C756.539 97.594 754.918 97.4783 753.273 97.4783C749.242 97.4783 745.535 98.335 742.199 100.072C738.864 101.808 736.501 104.448 735.087 107.99L733.721 98.335H720.608V162.634H736.199V130.242C736.199 124.893 737.636 120.517 740.532 117.136C743.427 113.756 747.505 112.065 752.787 112.065C754.448 112.065 756.201 112.272 758.092 112.686V112.691H758.115ZM797.107 163.514C801.462 163.514 805.887 162.935 810.335 161.777H810.358V148.788C806.883 149.205 803.547 149.413 800.327 149.413C795.532 149.413 793.145 147.075 793.145 142.374V111.093H809.362V98.3579H793.145V78.1905L777.67 82.0341V98.3579H765.925V111.093H777.67V143.74C777.67 149.992 779.338 154.854 782.628 158.328C785.918 161.778 790.759 163.514 797.107 163.514ZM878.142 130.984C878.05 132.952 878.027 134.411 878.027 135.314H834.96C834.798 140.593 836.373 144.807 839.663 147.933C842.466 150.572 845.64 151.892 849.184 151.892C853.401 151.892 856.528 150.873 858.59 148.789C860.073 147.307 861.115 145.501 861.671 143.348H876.521C876.104 147.4 874.297 151.336 871.077 155.226C865.957 161.246 858.752 164.256 849.416 164.256C841.401 164.256 834.636 161.617 829.122 156.338C822.52 149.993 819.23 141.426 819.23 130.613C819.23 119.8 822.335 111.233 828.52 104.889C833.802 99.4475 840.636 96.7385 849.069 96.7385C859.47 96.7385 867.301 100.698 872.583 108.617C876.544 114.637 878.397 122.092 878.142 131.007V130.984ZM862.667 124.061C862.575 119.36 861.254 115.609 858.706 112.808C856.389 110.33 853.146 109.103 848.93 109.103C844.227 109.103 840.636 110.747 838.157 114.058C836.003 116.79 834.891 120.124 834.821 124.084H862.667V124.061ZM940.25 163.653C942.636 163.653 945.208 163.074 947.918 161.916V161.87V150.501L945.949 150.756C944.629 150.756 943.702 150.455 943.169 149.83C942.613 149.205 942.359 148.163 942.359 146.681V122.809C942.359 117.275 941.733 112.945 940.505 109.819C937.123 101.09 929.061 96.714 916.366 96.714C908.79 96.714 902.536 98.4737 897.624 101.97C892.736 105.489 890.072 110.699 889.655 117.622H904.62C905.014 111.533 908.929 108.476 916.366 108.476C920.489 108.476 923.339 109.333 924.914 111.07C926.466 112.806 927.254 115.33 927.254 118.618V122.577L908.327 123.943C901.956 124.337 896.744 126.328 892.667 129.871C888.589 133.414 886.551 138.16 886.551 144.088C886.551 149.691 888.589 154.461 892.667 158.374C896.767 162.287 902.466 164.255 909.81 164.255C914.188 164.255 918.15 163.329 921.694 161.477C925.238 159.624 927.787 157.332 929.362 154.623C929.617 157.193 930.683 159.323 932.582 161.06C934.482 162.796 937.03 163.653 940.25 163.653ZM927.254 134.085V137.049C927.254 141.657 925.748 145.269 922.737 147.862C919.725 150.455 915.764 151.752 910.806 151.752C908.327 151.752 906.173 151.011 904.366 149.529C902.559 148.047 901.655 146.172 901.655 143.717C901.655 141.263 902.559 139.272 904.366 137.79C906.173 136.308 908.373 135.474 910.922 135.312L927.254 134.085ZM1051.13 162.659H1035.79V122.718C1035.79 118.504 1035.07 115.378 1033.64 113.317C1032.2 111.256 1029.6 110.214 1025.9 110.214C1021.84 110.214 1018.74 111.974 1016.56 115.47C1014.38 118.967 1013.27 122.995 1013.27 127.534V162.659H997.936V122.718C997.936 118.504 997.218 115.378 995.781 113.317C994.345 111.256 991.75 110.214 988.044 110.214C983.99 110.214 980.862 111.974 978.638 115.47C976.414 118.967 975.302 122.995 975.302 127.534V162.659H959.966V98.3593H972.823L974.051 106.903C978.175 100.142 984.291 96.7617 992.376 96.7617C1001.2 96.7617 1007.34 100.258 1010.82 107.274C1014.85 100.258 1021.33 96.7617 1030.25 96.7617C1036.92 96.7617 1042.09 98.7992 1045.73 102.874C1049.37 106.95 1051.17 112.414 1051.17 119.268V162.682L1051.13 162.659ZM490.243 275.467C495.108 270.604 497.541 264.515 497.541 257.175H497.633C497.633 249.997 495.363 244.231 490.822 239.855C486.282 235.479 480.513 232.816 473.494 231.821L473.321 231.801L473.316 231.8L473.31 231.8C471.828 231.63 468.878 231.291 464.459 230.825C459.826 230.339 456.49 229.922 454.428 229.598C448.474 228.625 445.509 225.453 445.509 220.082C445.509 217.28 446.505 214.825 448.474 212.672C451.602 209.454 456.351 207.856 462.698 207.856C465.177 207.856 467.656 208.296 470.181 209.153C472.706 210.033 474.652 211.167 476.065 212.556C478.475 215.127 479.749 217.998 479.911 221.216H496.243C496.151 214.27 493.185 208.064 487.324 202.531C481.208 196.835 473.054 193.987 462.814 193.987C457.694 193.987 452.876 194.82 448.335 196.464C443.795 198.131 440.042 200.377 437.076 203.271C431.957 208.389 429.408 214.154 429.408 220.591C429.408 227.514 431.493 233.048 435.663 237.216C439.833 241.383 445.185 244 451.694 245.065C453.501 245.389 456.675 245.76 461.216 246.176C465.756 246.57 469.046 246.987 471.108 247.404C478.035 248.654 481.509 252.104 481.509 257.8C481.509 260.926 480.351 263.727 478.035 266.205C474.977 269.331 469.903 270.905 462.814 270.905C456.119 270.905 451.208 269.331 448.08 266.205C445.022 263.149 443.493 259.56 443.493 255.438H427.161C427.161 263.519 430.196 270.303 436.312 275.837C442.914 281.857 451.648 284.867 462.536 284.867C474.722 284.867 483.965 281.741 490.243 275.467ZM527.586 210.055H510.999V194.102H527.586V210.055ZM527.215 283.269H511.508V218.97H527.215V283.269ZM583.281 283.27H598.756L598.733 283.224V240.319C598.733 233.488 596.787 227.931 592.918 223.694C589.049 219.457 583.721 217.327 576.956 217.327C572.995 217.327 569.311 218.16 565.883 219.851C562.454 221.541 559.836 223.995 558.029 227.214L556.917 218.924H543.921V283.224H559.396V257.013C559.396 248.77 560.091 243.051 561.504 239.833C563.983 234.391 567.69 231.682 572.647 231.682C576.516 231.682 579.273 232.701 580.871 234.716C582.47 236.753 583.281 239.786 583.281 243.815V283.27ZM672.98 291.812C672.98 295.841 672.053 299.337 670.2 302.254C668.347 305.172 665.845 307.418 662.717 308.923C659.59 310.451 656.3 311.563 652.871 312.257C649.443 312.952 645.806 313.299 641.914 313.299C631.767 313.299 624.168 311.516 619.141 307.974C613.952 304.338 611.334 299.638 611.334 293.873C611.334 287.69 613.882 283.314 619.002 280.767C617.033 279.702 615.458 278.128 614.299 276.067C613.141 274.006 612.562 271.899 612.562 269.769C612.562 264.235 615.11 259.928 620.23 256.779C615.944 252.496 613.79 247.217 613.79 240.942C613.79 233.533 616.292 227.721 621.272 223.576C626.253 219.408 632.555 217.325 640.153 217.325C645.435 217.325 650.3 218.644 654.748 221.284C657.389 215.935 661.767 213.249 667.86 213.249C670.015 213.249 671.405 213.342 672.076 213.504V225.498C672.076 225.498 671.798 225.498 671.451 225.429C671.127 225.382 670.918 225.359 670.825 225.359C666.54 225.359 663.945 226.725 663.041 229.434C665.265 233.069 666.377 236.936 666.377 241.058C666.377 248.143 663.829 253.816 658.709 258.053C653.59 262.29 647.404 264.42 640.153 264.42C636.516 264.42 633.064 263.842 629.751 262.684C627.597 263.911 626.531 265.439 626.531 267.268C626.531 270.394 628.871 271.969 633.574 271.969H644.207C654.03 271.969 661.003 273.404 665.126 276.299C670.316 279.841 672.91 285.005 672.91 291.766L672.98 291.812ZM658.385 292.182C658.385 290.284 657.899 288.756 656.972 287.598C656.022 286.44 654.632 285.63 652.756 285.19C650.902 284.727 649.327 284.472 648.053 284.379C646.779 284.287 645.111 284.264 643.049 284.264H630.933C627.064 285.421 625.118 288.061 625.118 292.182C625.118 298.11 630.516 301.097 641.335 301.097C652.709 301.097 658.408 298.133 658.408 292.182H658.385ZM648.493 249.578C650.555 247.402 651.574 244.531 651.574 240.988C651.574 237.446 650.532 234.551 648.493 232.329C646.431 230.106 643.674 228.994 640.199 228.994C636.724 228.994 633.968 230.106 631.906 232.329C629.844 234.551 628.802 237.446 628.802 240.988C628.802 244.531 629.844 247.402 631.906 249.578C633.968 251.755 636.724 252.866 640.199 252.866C643.674 252.866 646.431 251.778 648.493 249.578ZM733.121 284.266C735.507 284.266 738.079 283.687 740.789 282.529V282.483V271.114L738.82 271.369C737.5 271.369 736.573 271.068 736.04 270.443C735.484 269.817 735.229 268.776 735.229 267.294V243.422C735.229 237.888 734.604 233.558 733.376 230.432C729.994 221.703 721.932 217.327 709.237 217.327C701.661 217.327 695.406 219.086 690.495 222.583C685.607 226.102 682.943 231.312 682.526 238.235H697.491C697.885 232.145 701.8 229.089 709.237 229.089C713.36 229.089 716.21 229.946 717.785 231.682C719.337 233.419 720.125 235.943 720.125 239.231V243.19L701.198 244.556C694.827 244.95 689.615 246.941 685.537 250.484C681.46 254.026 679.421 258.773 679.421 264.7C679.421 270.304 681.46 275.074 685.537 278.987C689.638 282.9 695.337 284.868 702.68 284.868C707.059 284.868 711.02 283.942 714.565 282.089C718.109 280.237 720.658 277.945 722.233 275.236C722.488 277.806 723.553 279.936 725.453 281.672C727.353 283.409 729.901 284.266 733.121 284.266ZM720.125 254.698V257.661C720.125 262.269 718.619 265.881 715.607 268.475C712.596 271.068 708.634 272.364 703.677 272.364C701.198 272.364 699.043 271.624 697.236 270.142C695.429 268.66 694.526 266.784 694.526 264.33C694.526 261.876 695.429 259.884 697.236 258.402C699.043 256.921 701.244 256.087 703.792 255.925L720.125 254.698ZM814.042 250.992C814.042 263.866 810.196 273.429 802.528 279.68C798.242 283.153 793.007 284.867 786.821 284.867C779.06 284.867 773.454 282.76 770.002 278.569V307.882H754.527V218.97H767.894L768.89 226.009C772.597 220.313 778.62 217.465 786.96 217.465C792.891 217.465 798.103 219.271 802.551 222.906C810.219 229.25 814.065 238.605 814.065 250.969L814.042 250.992ZM798.335 251.247C798.335 244.324 796.968 239.091 794.258 235.548C791.617 232.168 788.142 230.477 783.856 230.477C774.126 230.477 769.261 237.401 769.261 251.247C769.261 265.093 774.126 271.9 783.856 271.9C788.142 271.9 791.617 270.21 794.258 266.83C796.968 263.287 798.335 258.1 798.335 251.247ZM876.774 274.887C881.801 268.52 884.326 260.624 884.326 251.131C884.326 241.638 881.801 233.719 876.774 227.375C874.388 224.481 871.191 222.096 867.183 220.197C863.175 218.298 858.866 217.349 854.256 217.349C849.646 217.349 845.337 218.298 841.329 220.197C837.321 222.096 834.124 224.481 831.738 227.375C826.711 233.742 824.186 241.638 824.186 251.131C824.186 260.624 826.711 268.543 831.738 274.887C834.124 277.782 837.321 280.167 841.329 282.065C845.337 283.964 849.646 284.913 854.256 284.913C858.866 284.913 863.175 283.964 867.183 282.065C871.191 280.167 874.388 277.782 876.774 274.887ZM864.032 234.923C867.09 238.304 868.619 243.722 868.619 251.131C868.619 258.564 867.09 263.959 864.032 267.339C861.484 270.048 858.217 271.414 854.256 271.414C850.295 271.414 847.028 270.048 844.48 267.339C841.422 263.959 839.893 258.564 839.893 251.131C839.893 243.699 841.422 238.304 844.48 234.923C847.028 232.214 850.295 230.848 854.256 230.848C858.217 230.848 861.484 232.191 864.032 234.923ZM933.695 233.301L933.672 233.296V218.459C932.12 218.205 930.498 218.089 928.853 218.089C924.822 218.089 921.116 218.945 917.78 220.682C914.444 222.419 912.081 225.058 910.668 228.601L909.301 218.945H896.189V283.245H911.779V250.852C911.779 245.503 913.216 241.127 916.112 237.747C919.007 234.366 923.085 232.676 928.367 232.676C930.028 232.676 931.781 232.883 933.672 233.296V233.301H933.695ZM999.163 255.946C999.163 255.043 999.187 253.585 999.279 251.617V251.64C999.534 242.725 997.681 235.27 993.719 229.25C988.437 221.331 980.607 217.371 970.205 217.371C961.773 217.371 954.939 220.08 949.657 225.522C943.471 231.866 940.367 240.433 940.367 251.246C940.367 262.059 943.657 270.626 950.259 276.971C955.773 282.25 962.537 284.889 970.553 284.889C979.889 284.889 987.094 281.879 992.214 275.859C995.434 271.969 997.241 268.033 997.658 263.981H982.808C982.252 266.134 981.21 267.94 979.727 269.422C977.665 271.506 974.538 272.525 970.321 272.525C966.777 272.525 963.603 271.205 960.8 268.566C957.51 265.44 955.935 261.226 956.097 255.946H999.163ZM979.843 233.44C982.391 236.242 983.712 239.993 983.804 244.693V244.717H955.958C956.028 240.757 957.14 237.423 959.294 234.691C961.773 231.38 965.364 229.736 970.066 229.736C974.283 229.736 977.526 230.963 979.843 233.44Z" fill="#091530"/>
</svg>